<?xml version="1.0" encoding="iso-8859-1"?>
<!-- Generator: Adobe Illustrator 19.0.0, SVG Export Plug-In . SVG Version: 6.00 Build 0)  -->
<svg version="1.1" id="Layer_1" xmlns="http://www.w3.org/2000/svg" x="0px" y="0px"
     viewBox="0 0 512.001 512.001" style="enable-background:new 0 0 512.001 512.001;" xml:space="preserve">
<g>
	<path style="fill:#E5B877;" d="M218.846,256.039c-12.025,0-23.833,8.505-23.833,18.996c0,10.49,11.808,18.995,23.833,18.995
		V256.039z"/>
    <path style="fill:#E5B877;" d="M365.654,256.039c12.025,0,23.833,8.505,23.833,18.996c0,10.49-11.808,18.995-23.833,18.995V256.039
		z"/>
</g>
    <path style="fill:#444C51;" d="M292.251,0.077c-52.788,0-95.576,42.787-95.576,95.576c0,9.896,0,90.856,0,102.577v7.554h191.15
	v-7.554c0-10.843,0-91.193,0-102.577C387.826,42.863,345.041,0.077,292.251,0.077z"/>
    <path style="fill:#384047;" d="M255.734,95.653c0-42.482,27.714-78.48,66.047-90.92c-61.737-20.04-125.106,26.071-125.106,90.92
	c0,9.896,0,90.856,0,102.577v7.554h59.059v-7.554C255.734,187.386,255.734,107.037,255.734,95.653z"/>
    <path style="fill:#F9D6A2;" d="M269.246,354.676v25.401c0,12.705,10.301,23.005,23.004,23.005c12.707,0,23.009-10.3,23.009-23.005
	v-25.401C300.309,359.456,284.194,359.456,269.246,354.676z"/>
    <path style="fill:#E5B877;" d="M292.252,380.077V358.26c-7.831,0-15.564-1.205-23.006-3.584v25.401
	c0,17.758,19.264,28.74,34.509,19.92C296.881,396.018,292.252,388.591,292.252,380.077z"/>
    <path style="fill:#ED4343;" d="M435.645,497.195l-16.227-85.386c0,0-7.14-31.732-43.634-31.732c-20.076,0-43.504,0-60.526,0
	c0,12.705-10.302,23.005-23.009,23.005c-12.703,0-23.004-10.3-23.004-23.005c-17.023,0-40.451,0-60.529,0
	c-36.492,0-43.632,31.732-43.632,31.732l-15.747,82.866v0.001l-0.439,2.313c-0.563,4.716,0.084,15.012,16.5,15.012
	c37.782,0,219.626,0,259.385,0C430.283,511.404,437.806,508.57,435.645,497.195z"/>
    <path style="fill:#C93F3F;" d="M176.713,496.988l0.439-2.313v-0.001l15.747-82.866c0,0,7.141-31.732,43.632-31.732
	c-9.364,0-18.919,0-27.816,0c-36.492,0-43.632,31.732-43.632,31.732l-15.747,82.866v0.001l-0.439,2.313
	c-0.563,4.716,0.084,15.012,16.5,15.012h27.816C176.798,512,176.15,501.704,176.713,496.988z"/>
    <path style="fill:#F9D6A2;" d="M216.786,247.327v35.468c0,41.681,33.784,75.464,75.466,75.464c41.68,0,75.463-33.784,75.463-75.464
	v-35.468H216.786z"/>
    <path style="fill:#F4CF92;" d="M244.256,282.796v-35.468h-27.47v35.468c0,46.795,42.368,82.801,89.2,74.195
	C270.868,350.53,244.256,319.782,244.256,282.796z"/>
    <g>
	<path style="fill:#C93F3F;" d="M221.039,512v-54.972c0-4.267-3.459-7.726-7.726-7.726c-4.267,0-7.726,3.458-7.726,7.726V512
		H221.039z"/>
        <path style="fill:#C93F3F;"
              d="M378.911,512v-54.972c0-4.267-3.459-7.726-7.726-7.726s-7.726,3.458-7.726,7.726V512H378.911z"/>
</g>
    <g>
	<path style="fill:#FFC33E;" d="M395.318,365.986h-28.119c-4.267,0-7.726-3.458-7.726-7.726s3.459-7.726,7.726-7.726h28.119
		c4.267,0,7.726,3.458,7.726,7.726S399.585,365.986,395.318,365.986z"/>
        <path style="fill:#FFC33E;" d="M218.226,365.986h-28.118c-4.267,0-7.726-3.458-7.726-7.726s3.459-7.726,7.726-7.726h28.118
		c4.267,0,7.726,3.458,7.726,7.726S222.493,365.986,218.226,365.986z"/>
</g>
    <g>
	<path style="fill:#FFB53D;" d="M382.019,358.261c0-4.267,3.459-7.726,7.726-7.726H367.2c-4.267,0-7.726,3.458-7.726,7.726
		s3.459,7.726,7.726,7.726h22.545C385.477,365.986,382.019,362.527,382.019,358.261z"/>
        <path style="fill:#FFB53D;" d="M204.928,358.261c0-4.267,3.459-7.726,7.726-7.726h-22.545c-4.267,0-7.726,3.458-7.726,7.726
		s3.459,7.726,7.726,7.726h22.545C208.387,365.986,204.928,362.527,204.928,358.261z"/>
</g>
    <path style="fill:#C93F3F;"
          d="M303.753,399.979c-7.04,4.077-15.758,4.2-23.006,0v112.022c13.628,0,14.252,0,23.006,0V399.979z"/>
    <g>
	<path style="fill:#384047;" d="M94.916,301.754c-4.267,0-7.726-3.458-7.726-7.726V150.864c0-4.267,3.459-7.726,7.726-7.726
		s7.726,3.458,7.726,7.726v143.165C102.642,298.295,99.183,301.754,94.916,301.754z"/>
        <path style="fill:#384047;" d="M392.597,213.97c0-8.694-7.047-15.741-15.74-15.741H207.644c-8.694,0-15.74,7.048-15.74,15.741
		v19.676c0,8.694,7.047,15.74,15.74,15.74h169.213c8.694,0,15.74-7.047,15.74-15.74V213.97z"/>
</g>
    <path style="fill:#272F35;" d="M376.857,223.809H207.644c-7.683,0-14.071-5.509-15.454-12.789c-0.181,0.958-0.286,1.941-0.286,2.951
	v19.676c0,8.694,7.047,15.74,15.74,15.74h169.213c8.694,0,15.74-7.047,15.74-15.74V213.97c0-1.01-0.104-1.993-0.286-2.951
	C390.928,218.3,384.54,223.809,376.857,223.809z"/>
    <path style="fill:#384249;" d="M96.031,294.028h-2.227c-9.83,0-17.828,7.996-17.828,17.826V508.91c0,1.707,1.384,3.09,3.09,3.09
	h31.699c1.706,0,3.09-1.383,3.09-3.09V311.854C113.856,302.024,105.861,294.028,96.031,294.028z"/>
    <path style="fill:#262D33;" d="M94.916,508.91V311.854c0-6.81,3.843-12.735,9.47-15.735c-4.367-2.329-7.925-2.09-10.583-2.09
	c-9.83,0-17.828,7.996-17.828,17.826V508.91c0,1.707,1.384,3.09,3.09,3.09h18.94C96.3,512,94.916,510.617,94.916,508.91z"/>
    <path style="fill:#4C565E;" d="M75.977,508.91c0,1.707,1.384,3.09,3.09,3.09h31.699c1.706,0,3.09-1.383,3.09-3.09v-86.054H75.977
	V508.91z"/>
    <path style="fill:#384047;" d="M94.916,508.91v-86.054H75.977v86.054c0,1.707,1.384,3.09,3.09,3.09h18.94
	C96.3,512,94.916,510.617,94.916,508.91z"/>
    <g>
</g>
    <g>
</g>
    <g>
</g>
    <g>
</g>
    <g>
</g>
    <g>
</g>
    <g>
</g>
    <g>
</g>
    <g>
</g>
    <g>
</g>
    <g>
</g>
    <g>
</g>
    <g>
</g>
    <g>
</g>
    <g>
</g>
</svg>
