<svg id="Capa_1" enable-background="new 0 0 512 512" height="512" viewBox="0 0 512 512" width="512"
     xmlns="http://www.w3.org/2000/svg">
    <circle cx="256" cy="256" fill="#b3d8fb" r="256"/>
    <path d="m398.42 468.76c-18.705 12.513-69.979 43.244-142.42 43.24-72.437-.004-123.706-30.736-142.41-43.25 7.485-9.924 20.063-24.039 39.19-35.32 28.164-16.612 53.958-17.307 97.97-17.93 46.238-.654 76.544-1.083 108.49 17.93 18.951 11.279 31.541 25.27 39.18 35.33z"
          fill="#09a66d"/>
    <path d="m215.205 416.81c1.117 3.206-24.37 6.119-35.824 25.703-8.829 15.095-14.171 34.677-14.906 52.628-16.1-6.703-38.413-17.328-50.89-26.39 7.159-9.816 19.675-24.134 39.19-35.32 13.445-7.707 24.969-10.923 32.639-13.008 11.414-3.105 28.811-6.424 29.791-3.613z"
          fill="#017b4f"/>
    <path d="m309.8 417.48v6.96c0 24.17-15.94 44.6-37.89 51.39-5.02 1.56-10.38 2.4-15.92 2.4-29.71 0-53.79-24.08-53.79-53.79v-6.96c.92-.09 1.82-.18 2.75-.25 3.38-.28 6.8-.42 10.26-.42h81.59c4.4 0 8.73.23 13 .67z"
          fill="#017b4f"/>
    <path d="m300.711 368.538v54.869c0 20.088-13.245 37.067-31.489 42.707-4.176 1.296-8.627 1.997-13.23 1.997-24.691 0-44.703-20.012-44.703-44.703v-54.869h89.422z"
          fill="#efb29a"/>
    <path d="m300.711 419.932v3.475c0 20.088-13.245 37.067-31.489 42.707-16.461-5.06-28.837-19.372-31.123-36.884 2.987.183 5.99.274 9.008.274 8.459 0 16.75-.671 24.829-1.997 9.952-1.6 19.569-4.161 28.775-7.575z"
          fill="#ffcbbe"/>
    <path d="m132.545 278.153c0 20.497-14.973 37.492-34.579 40.646-2.143.347-4.347.528-6.596.528-22.746 0-41.175-18.429-41.175-41.175s18.429-41.175 41.175-41.175c2.249 0 4.453.181 6.596.528 19.607 3.156 34.579 20.152 34.579 40.648z"
          fill="#ffcbbe"/>
    <path d="m132.545 278.153c0 20.497-14.973 37.492-34.579 40.646-3.562-12.95-5.464-26.579-5.464-40.646s1.902-27.696 5.464-40.646c19.607 3.154 34.579 20.15 34.579 40.646z"
          fill="#efb29a"/>
    <circle cx="91.371" cy="278.153" fill="#efb29a" r="14.716"/>
    <path d="m379.455 278.153c0 20.497 14.973 37.492 34.579 40.646 2.143.347 4.347.528 6.596.528 22.746 0 41.175-18.429 41.175-41.175s-18.429-41.175-41.175-41.175c-2.249 0-4.453.181-6.596.528-19.607 3.156-34.579 20.152-34.579 40.648z"
          fill="#ffcbbe"/>
    <path d="m379.455 278.153c0 20.497 14.973 37.492 34.579 40.646 3.562-12.95 5.464-26.579 5.464-40.646s-1.902-27.696-5.464-40.646c-19.607 3.154-34.579 20.15-34.579 40.646z"
          fill="#efb29a"/>
    <circle cx="420.629" cy="278.153" fill="#efb29a" r="14.716"/>
    <path d="m410.701 256.511c0 76.985-56.241 140.847-129.873 152.705-8.078 1.326-16.369 1.997-24.828 1.997-85.444 0-154.701-69.257-154.701-154.701v-157.5h309.403v157.499z"
          fill="#ffcbbe"/>
    <path d="m140.027 173.618h284.09v53.43h-284.09z" fill="#efb29a"/>
    <path d="m283.249 408.81c-.8.14-1.61.28-2.42.41-8.08 1.32-16.37 1.99-24.83 1.99-85.44 0-154.7-69.25-154.7-154.7v-157.5h54.55v157.5c0 76.14 54.979 139.41 127.4 152.3z"
          fill="#efb29a"/>
    <path d="m256 416.213c-88.06 0-159.702-71.642-159.702-159.702v-162.499h319.403v162.499c0 38.174-13.685 75.12-38.533 104.034-24.583 28.606-58.515 47.644-95.545 53.607-8.322 1.367-16.948 2.061-25.623 2.061zm-149.702-312.201v152.499c0 82.546 67.156 149.702 149.702 149.702 8.134 0 16.215-.65 24.019-1.931 34.717-5.591 66.52-23.438 89.566-50.254 23.29-27.101 36.117-61.733 36.117-97.516v-152.5z"
          fill="#09a66d"/>
    <path d="m273.549 291.694h-35.098c-4.181 0-7.57-3.389-7.57-7.57 0-4.181 3.389-7.57 7.57-7.57h35.098c4.181 0 7.57 3.389 7.57 7.57 0 4.18-3.389 7.57-7.57 7.57z"
          fill="#efb29a"/>
    <path d="m281.345 249.161c0 17.165 13.915 31.08 31.08 31.08s31.08-13.915 31.08-31.08" fill="#efb29a"/>
    <circle cx="312.425" cy="249.161" fill="#3d322c" r="22.287"/>
    <circle cx="321.713" cy="245.228" fill="#fff" r="9.55"/>
    <path d="m168.495 249.161c0 17.165 13.915 31.08 31.08 31.08s31.08-13.915 31.08-31.08" fill="#efb29a"/>
    <circle cx="199.575" cy="249.161" fill="#3d322c" r="22.287"/>
    <path d="m204.787 270.831c-1.67.41-3.42.62-5.21.62-12.31 0-22.29-9.98-22.29-22.29s9.98-22.29 22.29-22.29c1.79 0 3.54.21 5.21.62-9.8 2.34-17.07 11.16-17.07 21.67s7.27 19.33 17.07 21.67z"
          fill="#231a16"/>
    <path d="m317.638 270.831c-1.67.41-3.42.62-5.21.62-12.31 0-22.29-9.98-22.29-22.29s9.98-22.29 22.29-22.29c1.79 0 3.54.21 5.21.62-9.8 2.34-17.07 11.16-17.07 21.67s7.27 19.33 17.07 21.67z"
          fill="#231a16"/>
    <circle cx="208.863" cy="245.228" fill="#fff" r="9.55"/>
    <path d="m426.71 176.22h-341.42s-1.27-22.28 1.8-51.46c1.62-15.46 4.46-32.86 9.35-49.9 4.7-16.37 16.31-29.88 31.82-36.91 31.5-14.28 89.5-37.95 127.74-37.95s96.24 23.67 127.74 37.95c7.83 3.55 14.67 8.75 20.12 15.14 5.35 6.26 9.37 13.67 11.7 21.77 4.08 14.22 6.73 28.69 8.43 42.08.35 2.65.65 5.26.92 7.82 3.07 29.18 1.8 51.46 1.8 51.46z"
          fill="#09a66d"/>
    <path d="m256 0c-18.36 0-46.22 23.67-61.34 37.95-7.45 7.03-13.03 20.54-15.28 36.91-2.35 17.04-3.72 34.44-4.49 49.9-1.48 29.18-.87 51.46-.87 51.46h-88.73s-1.27-22.28 1.8-51.46c1.62-15.46 4.46-32.86 9.35-49.9 4.7-16.37 16.31-29.88 31.82-36.91 31.5-14.28 89.5-37.95 127.74-37.95z"
          fill="#017b4f"/>
    <path d="m426.71 176.22h-23.84l-.92-6.51h-291.9l-.92 6.51h-23.84s-1.27-22.28 1.8-51.46c.07-.01.15-.01.22-.01h337.38c.07 0 .15 0 .22.01 3.07 29.18 1.8 51.46 1.8 51.46z"
          fill="#49cb8b"/>
    <path d="m174.822 176.22h-6.265l-.242-6.51h-76.71l-.242 6.51h-6.265s-.334-22.28.473-51.46c.018-.01.039-.01.058-.01h88.662c.018 0 .039 0 .058.01.806 29.18.473 51.46.473 51.46z"
          fill="#13b766"/>
    <path d="m448.19 284.39c-9.89 0-19.04-3.65-26.05-9.74s-11.9-14.64-13.27-24.44l-6.92-49.23h-291.9l-6.92 49.23c-2.75 19.6-19.53 34.18-39.32 34.18-6.79 0-12.17-5.53-12.17-12.15 0-.46.03-.92.08-1.38l10.43-92.35c.64-5.7 3.2-11.01 7.25-15.07 2.38-2.38 5.18-4.23 8.22-5.49 3.04-1.25 6.34-1.92 9.69-1.92h337.38c6.71 0 13.16 2.66 17.91 7.41 4.05 4.06 6.61 9.37 7.25 15.07l10.43 92.35c.81 7.21-4.83 13.53-12.09 13.53z"
          fill="#09a66d"/>
    <path d="m290.54 382.855c-23.027-.645-46.053-.645-69.08 0-10.635.298-19.278 8.957-19.309 19.596v.384c.031 10.639 8.674 19.298 19.309 19.596 23.027.645 46.053.645 69.08 0 10.635-.298 19.278-8.957 19.309-19.596 0-.128 0-.256 0-.384-.031-10.64-8.674-19.298-19.309-19.596z"
          fill="#09a66d"/>
    <path d="m270.601 394.278c-9.734-.273-19.468-.273-29.203 0-4.496.126-8.149 3.786-8.163 8.284v.162c.013 4.498 3.667 8.158 8.163 8.284 9.734.273 19.468.273 29.203 0 4.496-.126 8.149-3.786 8.163-8.284 0-.054 0-.108 0-.162-.013-4.498-3.667-8.158-8.163-8.284z"
          fill="#efb29a"/>
    <g fill="#017b4f">
        <path d="m155.85 156.03s-23.58 7.04-27.42 44.95h-18.38l-6.92 49.23c-2.75 19.6-19.53 34.18-39.32 34.18-6.79 0-12.17-5.53-12.17-12.15 0-.46.03-.92.08-1.38l10.43-92.35c.64-5.7 3.2-11.01 7.25-15.07 2.38-2.38 5.18-4.23 8.22-5.49 3.04-1.25 6.34-1.92 9.69-1.92z"/>
        <path d="m423.99 116.94h-91.1c-4.67 0-8.91-1.9-11.98-4.96-3.06-3.06-4.96-7.3-4.96-11.98 0-9.35 7.59-16.94 16.94-16.94h19.16c-3.74-3.11-6.12-7.79-6.12-13.03 0-9.36 7.58-16.94 16.94-16.94h40.99c5.35 6.26 9.37 13.67 11.7 21.77 4.08 14.22 6.73 28.69 8.43 42.08z"/>
        <path d="m149.149 92.822h108.163c9.356 0 16.941-7.585 16.941-16.941 0-9.356-7.585-16.941-16.941-16.941h-108.163z"/>
        <path d="m168.696 40.695h67.765c9.356 0 16.941-7.585 16.941-16.941 0-9.356-7.585-16.941-16.941-16.941h-13.032z"/>
    </g>
    <path d="m289.231 329.998h-66.461c-3.958 0-7.167-3.209-7.167-7.167 0-3.958 3.209-7.167 7.167-7.167h66.461c3.958 0 7.167 3.209 7.167 7.167 0 3.958-3.209 7.167-7.167 7.167z"
          fill="#dd9f8a"/>
    <path d="m226.814 229.654h-66.461c-3.958 0-7.167-3.209-7.167-7.167 0-3.958 3.209-7.167 7.167-7.167h66.461c3.958 0 7.167 3.209 7.167 7.167.001 3.958-3.208 7.167-7.167 7.167z"
          fill="#dd9f8a"/>
    <path d="m351.647 229.654h-66.461c-3.958 0-7.167-3.209-7.167-7.167 0-3.958 3.209-7.167 7.167-7.167h66.461c3.958 0 7.167 3.209 7.167 7.167.001 3.958-3.208 7.167-7.167 7.167z"
          fill="#dd9f8a"/>
    <path d="m368.341 306.593c-.617 0-1.242-.057-1.87-.176l-30.068-5.688c-5.427-1.027-8.994-6.258-7.967-11.685 1.027-5.426 6.253-8.994 11.685-7.967l30.068 5.688c5.427 1.027 8.994 6.258 7.967 11.685-.908 4.799-5.104 8.143-9.815 8.143z"
          fill="#3d322c"/>
    <path d="m365.62 331.762c-.617 0-1.242-.057-1.87-.176l-30.067-5.688c-5.427-1.027-8.994-6.258-7.967-11.685s6.254-8.993 11.685-7.967l30.067 5.688c5.427 1.027 8.994 6.258 7.967 11.685-.909 4.799-5.104 8.143-9.815 8.143z"
          fill="#3d322c"/>
    <path d="m143.659 306.593c-4.711 0-8.907-3.344-9.814-8.143-1.027-5.427 2.54-10.658 7.967-11.685l30.068-5.688c5.424-1.028 10.658 2.54 11.685 7.967s-2.54 10.658-7.967 11.685l-30.068 5.688c-.629.119-1.255.176-1.871.176z"
          fill="#3d322c"/>
    <path d="m146.38 331.762c-4.711 0-8.907-3.344-9.814-8.143-1.027-5.427 2.54-10.658 7.967-11.685l30.067-5.688c5.423-1.027 10.658 2.54 11.685 7.967s-2.54 10.658-7.967 11.685l-30.067 5.688c-.628.119-1.254.176-1.871.176z"
          fill="#3d322c"/>
</svg>